<?xml version="1.0" encoding="UTF-8"?>
<!DOCTYPE svg PUBLIC "-//W3C//DTD SVG 1.1//EN" "http://www.w3.org/Graphics/SVG/1.1/DTD/svg11.dtd">
<svg xmlns="http://www.w3.org/2000/svg" version="1.1" width="512px" height="512px" style="shape-rendering:geometricPrecision; text-rendering:geometricPrecision; image-rendering:optimizeQuality; fill-rule:evenodd; clip-rule:evenodd" xmlns:xlink="http://www.w3.org/1999/xlink">
<g><path style="opacity:0.947" fill="#000000" d="M 230.5,-0.5 C 247.167,-0.5 263.833,-0.5 280.5,-0.5C 341.351,4.6081 395.018,26.7748 441.5,66C 496.1,115.132 517.267,175.965 505,248.5C 496.74,279.699 481.74,307.033 460,330.5C 442.397,349.184 423.564,366.351 403.5,382C 346.933,425.414 290.266,468.58 233.5,511.5C 230.5,511.5 227.5,511.5 224.5,511.5C 222.193,510.023 220.36,508.023 219,505.5C 218.667,475.833 218.333,446.167 218,416.5C 162.313,410.397 112.813,389.897 69.5,355C 8.47897,299.593 -11.021,232.093 11,152.5C 29.4013,104.428 60.5679,66.9285 104.5,40C 143.568,17.1431 185.568,3.64305 230.5,-0.5 Z M 233.5,21.5 C 305.236,16.4998 368.903,36.3332 424.5,81C 463.831,115.164 484.831,158.331 487.5,210.5C 486.731,239.97 478.231,266.97 462,291.5C 442.207,318.96 418.707,342.793 391.5,363C 341.333,401.167 291.167,439.333 241,477.5C 240.973,451.771 240.306,426.104 239,400.5C 237.5,399 236,397.5 234.5,396C 179.248,392.26 129.915,373.593 86.5,340C 26.8696,286.98 10.3696,222.813 37,147.5C 54.6985,110.133 81.1985,80.6327 116.5,59C 152.746,37.6928 191.746,25.1928 233.5,21.5 Z"/></g>
<g><path style="opacity:0.951" fill="#000000" d="M 113.5,152.5 C 123.021,150.334 128.521,154.001 130,163.5C 130.5,188.498 130.667,213.498 130.5,238.5C 142.505,238.333 154.505,238.5 166.5,239C 174.398,241.29 177.231,246.457 175,254.5C 173.437,257.728 170.937,259.895 167.5,261C 150.5,261.667 133.5,261.667 116.5,261C 113.452,260.394 110.952,258.894 109,256.5C 107.356,224.561 107.022,192.561 108,160.5C 108.625,156.891 110.458,154.224 113.5,152.5 Z"/></g>
<g><path style="opacity:0.963" fill="#000000" d="M 191.5,152.5 C 195.846,152.334 200.179,152.501 204.5,153C 206.667,153.833 208.167,155.333 209,157.5C 209.667,190.167 209.667,222.833 209,255.5C 206.968,259.936 203.468,261.936 198.5,261.5C 195.741,261.458 193.075,260.958 190.5,260C 189.107,258.829 188.273,257.329 188,255.5C 187.333,222.833 187.333,190.167 188,157.5C 188.997,155.677 190.164,154.01 191.5,152.5 Z"/></g>
<g><path style="opacity:0.954" fill="#000000" d="M 234.5,152.5 C 240.386,151.343 245.219,153.01 249,157.5C 263.284,176.785 277.951,195.785 293,214.5C 294.131,195.853 294.798,177.187 295,158.5C 297.071,154.047 300.571,152.047 305.5,152.5C 309.694,152.19 312.861,153.857 315,157.5C 316.644,189.106 316.978,220.772 316,252.5C 313.052,260.379 307.552,262.879 299.5,260C 297.333,257.833 295.167,255.667 293,253.5C 279.483,235.138 265.483,217.138 251,199.5C 250.933,217.877 250.266,236.21 249,254.5C 243.169,262.914 236.503,263.581 229,256.5C 227.348,224.252 227.015,191.919 228,159.5C 229.018,155.985 231.185,153.652 234.5,152.5 Z"/></g>
<g><path style="opacity:0.951" fill="#000000" d="M 341.5,152.5 C 359.836,152.333 378.17,152.5 396.5,153C 401.794,156.435 403.627,161.268 402,167.5C 400.878,169.624 399.378,171.457 397.5,173C 384.889,174.254 372.223,174.921 359.5,175C 358.584,175.374 357.75,175.874 357,176.5C 356.333,181.5 356.333,186.5 357,191.5C 357.5,192.667 358.333,193.5 359.5,194C 372.181,194.978 384.847,195.978 397.5,197C 403.116,202.086 403.949,207.919 400,214.5C 397.656,216.774 394.822,217.941 391.5,218C 380.172,218.5 368.838,218.667 357.5,218.5C 357.5,225.167 357.5,231.833 357.5,238.5C 369.171,238.333 380.838,238.5 392.5,239C 401.79,241.486 404.623,247.319 401,256.5C 398.806,259.181 395.973,260.681 392.5,261C 376.167,261.667 359.833,261.667 343.5,261C 337.882,259.715 334.715,256.215 334,250.5C 333.333,221.5 333.333,192.5 334,163.5C 334.063,158.006 336.563,154.34 341.5,152.5 Z"/></g>
</svg>
